Coordinates
version=1
nRows=12
nColumns=33
inDegrees=yes

Units are S.I. units (second, meters, Newtons, ...)
Angles are in degrees.

endheader
time	ground_thorax_rot_x	ground_thorax_rot_y	ground_thorax_rot_z	ground_thorax_tx	ground_thorax_ty	ground_thorax_tz	clav_prot_r	clav_elev_r	scapula_abduction_r	scapula_elevation_r	scapula_upward_rot_r	scapula_winging_r	shoulder_elv_r	plane_of_elev_r	axial_rot_r	elbow_flexion_r	pro_sup_r	wrist_flex_r	wrist_dev_r	clav_prot_l	clav_elev_l	scapula_abduction_l	scapula_elevation_l	scapula_upward_rot_l	scapula_winging_l	shoulder_elv_l	plane_of_elev_l	axial_rot_l	elbow_flexion_l	pro_sup_l	wrist_flex_l	wrist_dev_l
     10.48000000	    -31.90840854	    -28.44712916	     36.16985858	   -103.35433656	    852.71795508	    -44.35488898	     26.84156388	    -45.00000000	     40.78974295	    -45.00000000	    -45.00000000	   1691.17344905	  -2082.49756771	     20.98065533	   -142.95115801	    358.39235916	    158.51915609	     16.29614813	     14.41224518	     -3.83077093	     38.09875245	    -34.87201214	    -45.00000000	    -25.48881954	   3699.46530476	  -2981.86008881	    143.30392093	    179.99999979	   2160.34065672	     38.76769432	     12.85465459	    -24.99999983
     10.49000000	    -31.73976687	    -28.58611111	     36.42035107	   -101.59563138	    852.66892807	    -44.31981689	     26.81187076	    -45.00000000	     40.84399728	    -45.00000000	    -45.00000000	   1691.34428054	  -2082.57648339	     21.00793466	   -143.25818711	    358.35095920	    158.20808655	     16.18544207	     14.49941817	     -3.79688391	     38.15220266	    -34.97436149	    -45.00000000	    -25.20206224	   3699.52597062	  -2981.97142594	    143.30401412	    179.99999979	   2160.44701536	     38.82793118	     13.03336426	    -24.99999983
     10.50000000	    -31.55727781	    -28.74649821	     36.73867229	    -99.73703487	    852.57191210	    -44.27201951	     26.83498866	    -45.00000000	     40.88682175	    -45.00000000	    -45.00000000	   1691.52405200	  -2082.65207589	     21.00212027	   -143.56447104	    358.32680713	    157.89154917	     16.06641712	     14.58033489	     -3.75705988	     38.23150229	    -35.02589416	    -45.00000000	    -24.83575328	   3699.61072573	  -2982.01276510	    143.21416967	    179.99999979	   2160.51182802	     38.92214834	     13.22296164	    -24.99999983
     10.51000000	    -31.31810032	    -28.93700668	     37.11790173	    -97.78558655	    852.40769438	    -44.20944907	     26.90996419	    -45.00000000	     40.94643437	    -45.00000000	    -45.00000000	   1691.64603237	  -2082.71102647	     21.05373138	   -143.83755762	    358.31252357	    157.58806640	     15.93562573	     14.66332834	     -3.79024369	     38.25956902	    -35.13940063	    -45.00000000	    -24.55331317	   3699.69929347	  -2982.10180959	    143.20309908	    179.99999979	   2160.63339918	     39.01476465	     13.41232511	    -24.99999983
     10.52000000	    -31.06866376	    -29.14849527	     37.51504751	    -95.74445852	    852.16141686	    -44.13138048	     26.97004537	    -45.00000000	     41.00952029	    -45.00000000	    -45.00000000	   1691.77803895	  -2082.78070098	     21.09106288	   -144.10116514	    358.30022240	    157.30117538	     15.79206403	     14.75199991	     -3.82625246	     38.28486204	    -35.20306584	    -45.00000000	    -24.27333799	   3699.75143564	  -2982.17697649	    143.18955582	    179.99999979	   2160.73602248	     39.13127855	     13.60700619	    -24.99999983
     10.53000000	    -30.83279386	    -29.36355720	     37.89203943	    -93.61693402	    851.82324057	    -44.03806677	     26.94527935	    -45.00000000	     41.06637451	    -45.00000000	    -45.00000000	   1691.97143411	  -2082.84803203	     21.07259741	   -144.37955191	    358.26617078	    157.02349240	     15.64748568	     14.83838668	     -3.76617264	     38.34641733	    -35.28164588	    -45.00000000	    -24.01143982	   3699.81877030	  -2982.26260829	    143.16416764	    179.99999979	   2160.80516119	     39.27416077	     13.79486133	    -24.99999983
     10.54000000	    -30.58038719	    -29.60615211	     38.31086099	    -91.40677395	    851.38890711	    -43.93079171	     26.96533931	    -45.00000000	     41.12001582	    -45.00000000	    -45.00000000	   1692.14728745	  -2082.92369695	     21.07661581	   -144.62422604	    358.23471266	    156.77242289	     15.49761379	     14.92156235	     -3.72597130	     38.39270912	    -35.35130690	    -45.00000000	    -23.80118914	   3699.88472254	  -2982.32798424	    143.11861254	    179.99999979	   2160.85425457	     39.42257583	     13.98416078	    -24.99999983
     10.55000000	    -30.31180889	    -29.82271815	     38.76040336	    -89.11563208	    850.85801644	    -43.81102928	     26.85508027	    -45.00000000	     41.18730139	    -45.00000000	    -45.00000000	   1692.38002220	  -2082.99576266	     20.96396744	   -144.90983285	    358.20395928	    156.54442778	     15.32967452	     15.01054071	     -3.60476449	     38.46802584	    -35.40787085	    -45.00000000	    -23.59687561	   3699.87025536	  -2982.41579418	    143.13211599	    179.99999979	   2160.92543231	     39.58561274	     14.14723108	    -24.99999983
     10.56000000	    -29.91864107	    -30.18978755	     39.38461646	    -86.74626576	    850.23368824	    -43.68030873	     27.17589139	    -45.00000000	     41.26206711	    -45.00000000	    -45.00000000	   1692.37321042	  -2083.07502740	     21.15099645	   -145.00064209	    358.24225293	    156.39179952	     15.15875002	     15.08818683	     -3.83394273	     38.37628354	    -35.39246033	    -45.00000000	    -23.60997425	   3699.88424848	  -2982.43653722	    143.11528054	    179.99999979	   2161.01391408	     39.70553497	     14.35171190	    -24.99999983
     10.57000000	    -29.62501270	    -30.43110916	     39.86183131	    -84.29903876	    849.51740839	    -43.53826385	     27.10511914	    -45.00000000	     41.34212762	    -45.00000000	    -45.00000000	   1692.56918094	  -2083.15632918	     21.09416534	   -145.20926777	    358.22153332	    156.26282092	     14.99809673	     15.16276146	     -3.76281126	     38.41539706	    -35.39422805	    -45.00000000	    -23.40322473	   3699.87167480	  -2982.51725148	    143.07646435	    179.99999979	   2161.05077410	     39.87044615	     14.51637399	    -24.99999983
     10.58000000	    -29.25447014	    -30.72652607	     40.43056031	    -81.77272632	    848.71095087	    -43.38435325	     27.32378296	    -45.00000000	     41.35857732	    -45.00000000	    -45.00000000	   1692.62726046	  -2083.22049404	     21.24301443	   -145.29615012	    358.28032820	    156.19304226	     14.83387785	     15.21571778	     -3.90238180	     38.36389201	    -35.43417149	    -45.00000000	    -23.32520355	   3699.91497483	  -2982.63179051	    143.06893344	    179.99999979	   2161.11267237	     40.03306687	     14.69299615	    -24.99999983
     10.59000000	    -28.96687761	    -30.98232476	     40.93222178	    -79.16325362	    847.80621172	    -43.21000204	     27.29132953	    -45.00000000	     41.42014114	    -45.00000000	    -45.00000000	   1692.79989249	  -2083.32466208	     21.20237170	   -145.47048448	    358.26108052	    156.17232277	     14.69015935	     15.28601745	     -3.84606106	     38.38684969	    -35.45497551	    -45.00000000	    -23.16317510	   3699.93460826	  -2982.73307216	    143.01344986	    179.99999979	   2161.09396946	     40.23973806	     14.83561675	    -24.99999983
